<svg width="218" height="49" viewBox="0 0 218 49" fill="none" xmlns="http://www.w3.org/2000/svg">
<path d="M27.7342 22.3675C29.0037 22.9127 30.1383 23.6518 31.1284 24.5703C32.8219 26.1479 33.8433 28.3337 34.1998 30.6311C34.4455 32.228 34.4503 33.8299 34.2239 35.4317C33.9974 36.9851 33.4771 38.553 32.4991 39.7889C31.9932 40.4311 31.3428 40.8503 30.555 41.0442C29.5288 41.2962 28.7002 41.507 28.0738 41.6742C28.0618 41.6791 28.0497 41.6694 28.0449 41.6573C28.0449 41.6524 28.0449 41.6403 28.0497 41.633C28.4135 41.2017 28.7652 40.734 29.1121 40.2348C30.4057 38.3809 31.0922 36.1975 31.2247 33.922C31.2536 33.3573 31.2488 32.5843 31.1886 31.9542C30.9501 29.4872 29.948 26.8967 28.3075 25.0404C27.8908 24.5727 27.2813 23.9669 26.72 23.5234C24.4532 21.7422 21.6684 20.7584 18.7753 20.7874C18.108 20.7923 17.4986 20.8407 16.9373 20.9256C16.9252 20.9256 16.9132 20.9207 16.9132 20.9086C16.9132 20.9038 16.9132 20.8965 16.918 20.8916C17.5612 20.0217 18.1466 19.0741 18.6717 18.0466C19.3342 16.7501 19.9966 15.364 20.6471 13.8833C20.8976 13.3187 21.5721 12.1918 22.2466 12.1724C22.8368 12.1603 23.333 12.7662 23.6606 13.2218C23.8943 13.5465 24.2147 14.0069 24.6146 14.6128C24.9952 15.1895 25.6167 16.1661 26.4647 17.5523C26.8405 18.1654 27.1801 18.6743 27.4909 19.0814C27.7775 19.4643 28.1341 19.8787 28.558 20.0774C28.5942 20.0944 28.6423 20.0822 28.6712 20.0532C29.459 19.0741 29.8516 17.8455 29.9649 16.5854C30.119 14.7848 29.8035 13.0327 28.6351 11.6417C28.2473 11.1789 27.7173 10.7839 27.0428 10.447C25.9805 9.91874 24.7712 9.64248 23.5956 9.56008C23.0415 9.51889 22.4393 9.48254 21.866 9.48254C19.1511 9.48254 16.3302 9.48254 13.3961 9.48254C13.372 9.48254 13.3552 9.46557 13.3552 9.44134C13.3552 9.43649 13.3552 9.43649 13.3552 9.42922C13.4443 9.09238 13.4443 8.77007 13.3552 8.45746C13.3504 8.4405 13.36 8.41627 13.3793 8.409C13.3841 8.409 13.3841 8.409 13.3913 8.409C14.9668 8.41384 17.8479 8.41384 22.0346 8.409C23.2102 8.409 24.3785 8.53016 25.542 8.77007C26.3057 8.92517 27.0283 9.17235 27.7077 9.50192C29.0085 10.1271 29.9793 11.0747 30.6177 12.3469C31.0898 13.2823 31.3645 14.4528 31.3693 15.5627C31.3693 16.0062 31.3693 16.3188 31.3572 16.5102C31.2151 18.9578 29.9841 21.2454 27.7486 22.319C27.7438 22.3238 27.7366 22.3311 27.7438 22.3359C27.7294 22.3626 27.7342 22.3626 27.7342 22.3675Z" fill="#0B0B0B"/>
<path d="M12.3097 8.7653C12.2977 8.51812 12.0953 8.47208 11.8809 8.44784C11.7966 8.43573 11.5581 8.43573 11.1655 8.443C11.1052 8.443 11.0522 8.40665 11.0354 8.35333C10.7126 7.49547 10.3922 6.58429 10.0573 5.61011C9.91521 5.19087 9.75381 4.56565 9.6695 4.25304C9.54905 3.80229 9.25757 3.52603 8.79265 3.42425C8.2964 3.3152 7.83148 3.33944 7.3545 3.20131C6.93053 3.08014 6.70409 2.79418 6.68723 2.34829C6.68241 2.23439 6.69204 2.14957 6.71613 2.09141C6.72818 2.06718 6.74022 2.04295 6.75709 2.02598C6.86549 1.9242 6.93053 1.85877 6.95462 1.82727C7.15697 1.57524 7.24128 1.24567 7.19311 0.92094C7.07266 0.12366 6.17894 -0.273768 5.52371 0.206054C5.29726 0.373265 5.15995 0.608329 5.11178 0.925787C5.04673 1.31595 5.172 1.65764 5.47553 1.94601C5.56466 2.03083 5.60561 2.11322 5.61284 2.22712C5.63693 2.52035 5.66583 2.77237 5.4153 2.97109C5.18886 3.14557 4.90942 3.24008 4.5794 3.25947C4.15061 3.2837 3.75554 3.34913 3.39901 3.46303C2.99913 3.58904 2.74378 3.8653 2.63538 4.29181C2.57034 4.55595 2.46916 4.98246 2.33667 5.34839C2.08614 6.06812 1.77057 6.98657 1.38755 8.10373C1.3225 8.29033 1.30323 8.40907 1.10811 8.42119C0.886484 8.4333 0.720267 8.43815 0.590184 8.44542C0.315564 8.44542 0.0288994 8.53508 0.00480992 8.85981C-0.0313243 9.41718 0.14212 10.103 0.809398 10.0909C1.00693 10.086 1.22615 10.086 1.45981 10.086C1.4839 10.086 1.50077 10.103 1.50799 10.1272L3.17739 16.5539V16.5588C3.17739 16.5709 3.16535 16.583 3.1533 16.583C2.89795 16.5879 2.62815 16.5879 2.36076 16.583C2.23549 16.583 2.13914 16.6 2.08132 16.6436C1.83079 16.8108 1.82597 17.0749 1.99701 17.3027C2.33185 17.7535 3.1533 18.8391 4.45413 20.5621C4.47822 20.5912 4.54326 20.647 4.65648 20.7366C4.66853 20.7487 4.68539 20.7536 4.70466 20.7536H7.62672C7.65562 20.7536 7.69176 20.7415 7.71585 20.7245C7.82425 20.6348 7.92542 20.5258 8.01456 20.3998C8.44335 19.8109 9.21903 18.7446 10.3536 17.184C10.3657 17.167 10.3705 17.1476 10.3777 17.1307C10.45 16.8617 10.3609 16.6872 10.1103 16.6024C10.0862 16.5975 10.0622 16.5903 10.0381 16.5903H9.19735H9.19253C9.17567 16.5854 9.16362 16.566 9.16844 16.5491L10.8089 10.1296C10.8138 10.1127 10.8258 10.1006 10.8499 10.1006C10.9149 10.0957 11.0643 10.0957 11.3028 10.0957C12.0953 10.0739 12.3386 9.4608 12.3097 8.7653ZM8.13982 5.03335H8.51562C8.52766 5.03335 8.54452 5.04547 8.54452 5.05759L9.41656 8.34606V8.35091C9.41656 8.36787 9.40452 8.37999 9.38766 8.37999H8.53971C8.52284 8.37999 8.5108 8.36787 8.5108 8.35091L8.1061 5.06243C8.1061 5.06243 8.1061 5.06243 8.1061 5.05759C8.10369 5.04547 8.12296 5.03335 8.13982 5.03335ZM6.69686 5.06243C6.69686 5.04547 6.71373 5.02608 6.733 5.02608L7.19792 5.02124C7.21479 5.02124 7.23406 5.03335 7.23406 5.05759L7.44364 8.33395C7.44364 8.35091 7.42677 8.3703 7.4075 8.3703L6.69204 8.38241C6.67518 8.38241 6.65591 8.36545 6.65591 8.34606L6.69686 5.06243ZM4.90702 8.33395L5.11659 5.05759C5.11659 5.04062 5.13346 5.02124 5.15273 5.02124L5.61765 5.02608C5.63452 5.02608 5.65379 5.04305 5.65379 5.06243L5.69474 8.34364C5.69474 8.3606 5.67788 8.37999 5.65861 8.37999L4.94315 8.36787C4.92629 8.36787 4.90702 8.35818 4.90702 8.33395ZM2.87386 8.33879L3.7459 5.05032C3.75072 5.0382 3.76277 5.02608 3.77481 5.02608H4.15061C4.16747 5.02608 4.17951 5.0382 4.17951 5.05516C4.17951 5.05516 4.17951 5.05516 4.17951 5.06001L3.77481 8.34849C3.77481 8.36545 3.75795 8.37757 3.7459 8.37757H2.89795C2.88109 8.37757 2.86905 8.36545 2.86905 8.34849C2.86664 8.34606 2.87386 8.34606 2.87386 8.33879ZM9.48883 10.1103L7.9447 16.566C7.9447 16.5782 7.93265 16.583 7.92783 16.583H4.43727C4.42523 16.583 4.42041 16.5782 4.42041 16.566L2.82087 10.1103C2.82087 10.0981 2.82569 10.086 2.83773 10.086H2.84255H9.46956C9.4816 10.086 9.48883 10.0981 9.48883 10.1103Z" fill="#0B0B0B"/>
<path d="M16.3905 14.5303L15.663 14.5352C15.6582 14.5352 15.6509 14.5352 15.6461 14.5352C15.1451 14.414 14.7331 14.1523 14.4176 13.75C13.7792 12.9333 13.9767 11.6683 14.9018 11.157C15.3426 10.9098 15.7786 10.8638 16.2676 10.9098C16.2725 10.9098 16.2845 10.922 16.2797 10.9268C16.2797 10.9316 16.2749 10.9389 16.2749 10.9389C15.6124 11.3 15.2438 11.8574 15.1643 12.6134C15.1402 12.8364 15.1812 13.0884 15.2848 13.3816C15.4582 13.8809 15.9111 14.288 16.3953 14.4915C16.4074 14.4964 16.4122 14.5037 16.4074 14.5158C16.4074 14.5303 16.4025 14.5303 16.3905 14.5303Z" fill="#0B0B0B"/>
<path d="M7.9736 27.265C7.96879 27.2698 7.96156 27.2771 7.95674 27.2698C7.95192 27.2698 7.95192 27.265 7.95192 27.2577L7.86279 24.1146C7.86279 24.0856 7.87484 24.0613 7.8917 24.0371C8.27954 23.63 8.48189 23.1429 8.48912 22.5734C8.49394 22.0281 8.49394 21.4926 8.48912 20.9837C8.48912 20.9594 8.49394 20.9352 8.51321 20.911C10.0573 18.8414 10.8932 17.7122 11.0306 17.5328C11.151 17.3656 11.204 17.1911 11.1968 16.9997C11.1727 16.6265 10.7848 16.3284 10.4741 16.1661C10.4572 16.1612 10.45 16.137 10.462 16.1249C10.7174 15.6935 11.1052 15.2258 11.5485 14.9859C11.8351 14.8308 12.0736 14.855 12.3242 15.0513C12.4856 15.1773 12.6277 15.3155 12.7481 15.4706C13.1287 15.9577 13.3865 16.3042 13.5238 16.5078C13.7864 16.9028 14.0249 17.2275 14.2393 17.4868C14.3525 17.6249 14.5669 17.8285 14.8704 18.0878C14.8825 18.0999 14.9066 18.0999 14.9234 18.0926C15.1258 17.9715 15.304 17.8358 15.4606 17.6855C15.7063 17.4335 15.9617 17.1645 16.3013 17.1209C16.3784 17.116 16.5037 17.1451 16.6819 17.2178C16.9373 17.3269 17.4986 17.6928 17.9466 17.86C17.9635 17.8648 17.9707 17.8842 17.9635 17.9012C17.9635 17.9012 17.9635 17.9012 17.9635 17.906C17.4143 18.9747 16.865 20.0119 16.2146 20.9716C16.1737 21.0321 16.1134 21.0733 16.0412 21.0927C14.0899 21.5798 12.2953 22.4789 10.768 23.836C9.65505 24.798 8.68424 25.9685 7.9736 27.265Z" fill="#0B0B0B"/>
<path d="M5.03953 23.0702C4.38911 22.9975 4.19881 22.2172 4.59147 21.7495C4.60833 21.7252 4.63964 21.7131 4.67578 21.7131C5.58877 21.684 6.48249 21.6768 7.37139 21.701C8.24825 21.7252 8.14707 23.0508 7.30635 23.0629C7.28949 23.0629 7.27744 23.0799 7.27744 23.092L7.41957 28.1689C7.41957 28.1859 7.41957 28.2052 7.41475 28.2174C6.91369 29.4896 6.62702 30.8152 6.55476 32.1892C6.54271 32.3637 6.54271 32.7224 6.54271 33.2579C6.54753 34.884 6.87756 36.4979 7.46775 38.0052C7.47979 38.0295 7.47979 38.0537 7.48461 38.0779L7.62192 42.8132C7.62192 42.8544 7.65805 42.8907 7.69901 42.8907L8.3422 42.8955C8.35424 42.8955 8.36628 42.8955 8.3711 42.9004C8.79989 43.0264 9.08656 43.2736 9.2311 43.6444C9.30336 43.8237 9.33227 44.1533 9.32023 44.6161C9.31541 44.8633 9.31541 45.2413 9.32504 45.7454C9.32504 45.7987 9.32023 45.8593 9.29614 45.932C9.28409 45.9732 9.24314 46.0095 9.19496 46.0095L3.10515 45.9611C3.00879 45.9611 2.9317 45.8835 2.9317 45.7866C2.9317 45.3674 2.9317 44.856 2.9317 44.2623C2.9317 44.0054 2.96061 43.7995 3.02083 43.6492C3.17501 43.276 3.44963 43.0313 3.84469 42.898C3.85674 42.8931 3.86878 42.8931 3.88083 42.8931L4.71673 42.8689C4.74564 42.8689 4.77695 42.8398 4.77695 42.8083L5.08048 23.109C5.08048 23.0944 5.06362 23.0702 5.03953 23.0702Z" fill="#0B0B0B"/>
<path d="M30.2347 31.8427C30.0685 30.3015 29.5843 28.8426 28.8038 27.4686C28.2618 26.5138 27.6354 25.6438 26.8597 24.9241C26.5129 24.6066 26.1973 24.3352 25.9227 24.1268C23.6968 22.4474 21.1746 21.655 18.3586 21.7398C18.108 21.7446 17.7852 21.7761 17.3926 21.8246C15.4173 22.0645 13.3359 22.8279 11.8159 24.1462C11.4883 24.4345 11.3196 24.5654 11.0884 24.8126C10.7005 25.2197 10.4331 25.5154 10.2766 25.6898C8.82156 27.3692 7.93747 29.3152 7.62913 31.5228C7.60504 31.7143 7.58818 31.8233 7.58818 31.8524C7.58818 32.1408 7.52795 32.3686 7.52795 32.686C7.52795 33.321 7.52795 33.6772 7.53277 33.7547C7.60504 34.9616 7.84353 36.1199 8.25546 37.2298C9.29371 40.0506 11.4401 42.2994 14.1791 43.4893C14.2513 43.5184 14.3284 43.5378 14.4055 43.5378C14.9668 43.5426 15.7473 43.5499 16.4579 43.5208C18.8982 43.3996 21.3023 43.1137 23.6703 42.6557C24.6893 42.457 25.3999 42.314 25.795 42.2243C25.8962 42.2001 25.9973 42.1468 26.0937 42.0692C28.8327 39.8131 30.2925 36.5367 30.3166 32.9671C30.3118 32.6182 30.2588 32.0947 30.2347 31.8427ZM28.1293 33.384C28.1124 33.8105 28.0763 34.2176 28.0209 34.6077C27.7992 36.0908 27.2572 37.4212 26.3876 38.6038C24.711 40.8672 22.0322 42.3479 19.2186 42.3891C19.2017 42.3891 19.1897 42.377 19.1897 42.36V41.3034C19.1897 41.1532 19.0692 41.0272 18.915 41.0272H18.8789C18.8669 41.0272 18.862 41.0272 18.85 41.0272C18.838 41.0272 18.8331 41.0272 18.8211 41.0272C18.809 41.0272 18.8042 41.032 18.797 41.032C18.7898 41.032 18.7801 41.0369 18.7729 41.0369C18.7681 41.0417 18.7561 41.0417 18.7488 41.049C18.744 41.0538 18.732 41.0538 18.7247 41.0611C18.7199 41.066 18.7127 41.0732 18.7006 41.0781C18.6958 41.0829 18.6886 41.0902 18.6838 41.095C18.679 41.0999 18.6717 41.1071 18.6669 41.112C18.6621 41.1168 18.6549 41.1241 18.6501 41.129C18.6452 41.1338 18.6452 41.1459 18.638 41.1532C18.6332 41.158 18.626 41.1702 18.626 41.1774C18.6212 41.1823 18.6212 41.1944 18.6212 41.2017C18.6212 41.2089 18.6163 41.2186 18.6163 41.2259C18.6163 41.238 18.6163 41.2429 18.6115 41.255C18.6115 41.2671 18.6115 41.2719 18.6115 41.2841V42.3285C18.6115 42.3406 18.5995 42.3528 18.5874 42.3528C18.5031 42.3528 18.4092 42.3527 18.308 42.3406C13.519 41.9384 9.89113 38.1991 9.71769 33.3646V33.3597V33.3549C9.71769 33.3549 9.71769 33.35 9.7225 33.35C9.7225 33.35 9.7225 33.3452 9.72732 33.3452C9.72732 33.3452 9.73214 33.3452 9.73214 33.3403C9.73214 33.3403 9.73696 33.3403 9.73696 33.3355H9.74178H9.74659H10.8499C10.874 33.3355 10.8908 33.3306 10.9149 33.3234C11.2016 33.2022 11.1534 32.7418 10.8138 32.7297C10.4741 32.7248 10.1224 32.7175 9.76346 32.7248H9.75623C9.75623 32.7248 9.75623 32.7248 9.75141 32.7248H9.74659C9.74659 32.7248 9.74178 32.7248 9.74178 32.72C9.74178 32.72 9.73696 32.72 9.73696 32.7151C9.73696 32.7151 9.73696 32.7103 9.73214 32.7103V32.7054V32.7006C9.73214 32.7006 9.73214 32.7006 9.73214 32.6957V32.6909C9.76827 32.4752 9.76105 32.1917 9.79718 31.9227C10.1128 29.4266 11.4545 27.1414 13.4467 25.6341C14.9138 24.5242 16.6193 23.9184 18.5706 23.8093H18.5754H18.5802C18.5802 23.8093 18.585 23.8093 18.585 23.8142C18.585 23.8142 18.5898 23.8142 18.5898 23.819L18.5947 23.8239L18.5995 23.8287V23.8336V23.8384V24.9846C18.5995 24.9968 18.5995 25.0089 18.6043 25.021C18.6043 25.0331 18.6043 25.038 18.6091 25.0501C18.6091 25.0549 18.6139 25.067 18.6139 25.0743C18.6139 25.0816 18.6187 25.0913 18.626 25.0985C18.6308 25.1034 18.6308 25.1155 18.638 25.1228C18.6428 25.1276 18.6428 25.1397 18.6501 25.147C18.6549 25.1519 18.6621 25.1591 18.6669 25.164C18.6717 25.1688 18.679 25.1761 18.6838 25.1809C18.6886 25.1858 18.6958 25.1931 18.7006 25.1979C18.7055 25.2028 18.7127 25.21 18.7247 25.2149C18.7296 25.2197 18.7416 25.2197 18.7488 25.227C18.7536 25.2318 18.7657 25.2318 18.7729 25.2391C18.7777 25.2439 18.7898 25.2439 18.797 25.2439C18.8018 25.2439 18.8139 25.2488 18.8211 25.2488C18.8331 25.2488 18.838 25.2488 18.85 25.2488C18.862 25.2488 18.8741 25.2488 18.8861 25.2488H18.903C19.0572 25.2439 19.1776 25.1107 19.1776 24.9556V23.8263V23.8214V23.8166C19.1776 23.8166 19.1776 23.8118 19.1824 23.8118L19.1873 23.8069C19.1873 23.8069 19.1921 23.8069 19.1921 23.8021C19.1921 23.8021 19.1969 23.8021 19.1969 23.7972H19.2017H19.2065H19.2113C19.5101 23.8384 19.7847 23.8384 20.093 23.882C24.0654 24.4152 27.2452 27.4831 27.9558 31.4235C28.0329 31.85 28.0763 32.2644 28.0931 32.6788V32.6836V32.6885C28.0931 32.6885 28.0931 32.6885 28.0931 32.6933V32.6981C28.0931 32.6981 28.0931 32.6981 28.0883 32.703C28.0883 32.703 28.0883 32.703 28.0835 32.703H28.0787H28.0739C27.6378 32.703 27.2934 32.703 27.0308 32.7078C26.7971 32.7127 26.6959 32.8387 26.7273 33.081C26.7513 33.2846 26.9176 33.3282 27.1199 33.3282C27.5439 33.3234 27.8667 33.3282 28.0979 33.3282H28.1028H28.1076C28.1076 33.3282 28.1124 33.3282 28.1124 33.3331C28.1124 33.3331 28.1172 33.3331 28.1172 33.3379C28.1172 33.3379 28.1172 33.3428 28.122 33.3428C28.122 33.3428 28.122 33.3476 28.1269 33.3476V33.3525C28.1293 33.3791 28.1293 33.384 28.1293 33.384Z" fill="#0B0B0B"/>
<path d="M20.3918 33.2652C20.7627 33.1998 21.1674 33.1223 21.6203 33.0253C21.8708 32.9769 22.0852 33.0302 22.343 33.0786C23.1669 33.2458 23.8173 33.384 24.2942 33.493C24.3713 33.51 24.4243 33.5342 24.4556 33.5706C24.552 33.6724 24.4797 33.8274 24.3545 33.8638C23.0609 34.1934 22.3791 34.363 22.3141 34.38C22.0804 34.4406 21.866 34.4406 21.6637 34.38C21.3168 34.283 20.8832 34.1643 20.358 34.0189C20.3339 34.014 20.3099 34.0237 20.305 34.048V34.0528C20.293 34.1304 20.2569 34.2079 20.2039 34.2927C19.9244 34.7192 19.5486 34.947 19.0765 34.9713C18.6766 34.9955 18.2285 34.7847 17.9659 34.4551C17.7997 34.2394 17.6986 33.9995 17.6672 33.7281C17.595 33.0568 17.9708 32.497 18.5923 32.2571C18.6284 32.245 18.6453 32.2087 18.6405 32.1675C18.4911 31.3096 18.349 30.4396 18.1996 29.5696C18.1514 29.2934 18.1635 28.9686 18.2285 28.61C18.4501 27.4104 18.5634 26.7489 18.5682 26.6301C18.573 26.5162 18.6043 26.2642 18.6645 26.1139C18.6935 26.0364 18.7778 25.9928 18.8548 26.017C18.9319 26.0412 18.9849 26.1261 19.009 26.2085C19.2186 26.9476 19.4739 27.8224 19.7847 28.8378C19.8497 29.0607 19.869 29.3297 19.8257 29.6423C19.7004 30.5777 19.592 31.4308 19.498 32.199C19.498 32.2111 19.498 32.2232 19.5029 32.2353C19.539 32.2886 19.6233 32.2886 19.6883 32.3322C20.016 32.5552 20.2376 32.8533 20.3508 33.2265C20.3508 33.258 20.3677 33.2701 20.3918 33.2652Z" fill="#0B0B0B"/>
<path d="M10.4379 45.411C10.4379 45.4062 10.4428 45.3989 10.45 45.3989C11.0763 45.6461 11.6906 45.6267 12.2808 45.3504C12.2976 45.3456 12.3049 45.3262 12.2928 45.3092C12.2928 45.3044 12.288 45.3044 12.288 45.2971C11.9724 45.0402 11.6665 44.7276 11.6376 44.3132C11.6255 44.1266 11.6978 44.0079 11.852 43.9594C12.276 43.8286 12.8059 43.9352 13.1697 43.9473C13.6418 43.9643 13.9863 44.02 14.4055 44.0079C14.4946 44.0079 14.697 44.0127 15.027 44.0248C15.9568 44.0733 16.9903 44.0248 17.896 43.9958C18.1056 43.9909 18.3441 43.9473 18.5585 43.9473C18.756 43.9473 18.9632 43.9303 19.1969 43.8988C19.286 43.8867 19.3944 43.894 19.4884 43.8867C22.5959 43.6298 25.6793 43.1185 28.7339 42.3455C29.9143 42.045 31.073 41.6912 32.2052 41.2768C33.8047 40.6952 35.2284 39.8615 36.4931 38.7638C36.5533 38.7153 36.6473 38.6668 36.7846 38.6329C36.8014 38.6281 36.8255 38.6281 36.8496 38.6329C37.3796 38.7468 37.2736 39.2751 37.2616 39.6822C37.2013 41.6863 36.5341 43.4917 35.1561 44.9215C34.3154 45.7915 33.0435 46.1816 31.8583 46.3803C31.4873 46.4409 31.0898 46.4773 30.6586 46.4894C29.7216 46.5136 28.7797 46.4482 27.8257 46.2907C26.6453 46.092 25.5541 45.9247 24.4026 45.8957C23.9497 45.8836 23.5089 45.8714 23.0777 45.8545C21.9262 45.806 20.6567 45.8787 19.8569 45.9029C19.7196 45.9078 19.5582 45.932 19.404 45.9393C18.7777 45.9684 18.1466 46.0047 17.501 46.0532C17.2986 46.0701 16.7084 46.1065 15.7232 46.1622C15.0968 46.1986 14.7331 46.2155 14.6199 46.2228C14.3742 46.2349 14.1236 46.2471 13.8731 46.2471C13.2998 46.2471 12.9192 46.2107 12.447 46.1937C12.2567 46.1889 12.1001 46.1768 11.9869 46.1647C11.4617 46.1041 10.7511 46.0435 10.4596 45.5831C10.4379 45.5297 10.4259 45.4764 10.4379 45.411Z" fill="#0B0B0B"/>
<path d="M33.0195 47.0613C33.2049 46.9886 33.5037 47.0371 33.6867 46.9716C33.7951 46.9353 33.9493 46.9426 34.1035 46.9111C34.6648 46.8093 35.1899 46.6711 35.6789 46.4918C35.9897 46.3779 36.8111 45.9878 36.4546 45.5322C36.3462 45.394 36.2161 45.3044 36.0499 45.2632C36.0258 45.2583 36.0138 45.2341 36.021 45.2147C36.021 45.2026 36.0258 45.1978 36.0379 45.1905L36.0668 45.1735C36.1029 45.1493 36.1511 45.1372 36.192 45.1493C36.6642 45.222 37.2231 45.3771 37.5651 45.726C37.8928 46.0629 37.582 46.3973 37.2857 46.5839C36.9219 46.8117 36.5221 46.9668 36.0933 47.0468C35.438 47.1679 34.7635 47.214 34.077 47.1849C33.9035 47.18 33.7253 47.1679 33.5518 47.1485C33.3133 47.1243 33.1351 47.1073 33.0267 47.1073C33.0146 47.1073 33.0098 47.1025 33.0098 47.0904C33.0074 47.0662 33.0146 47.0613 33.0195 47.0613Z" fill="#0B0B0B"/>
<path d="M39.0731 45.583C39.0731 45.5782 39.0731 45.5709 39.0779 45.5709H39.0828C39.4417 45.6679 39.738 45.7939 39.9837 45.9441C40.0801 46.0047 40.1499 46.0992 40.1933 46.2325C40.2776 46.4845 40.056 46.7656 39.8536 46.911C39.461 47.1752 38.9406 47.306 38.4878 47.3545C38.3143 47.3715 38.189 47.3909 38.112 47.4078C38.1071 47.4078 38.0999 47.4078 38.0951 47.4078H37.6952C37.6904 47.4078 37.6832 47.403 37.6832 47.3909C37.6832 47.386 37.688 47.3787 37.6952 47.3787C38.1963 47.3012 38.6492 47.1437 39.025 46.7777C39.2923 46.5136 39.3646 46.2083 39.2345 45.8593C39.1888 45.7575 39.1213 45.6751 39.0731 45.583Z" fill="#0B0B0B"/>
<path d="M30.5623 47.2334C30.5671 47.2334 30.5744 47.2382 30.5744 47.2455C30.5744 47.2504 30.5744 47.2576 30.5695 47.2576C29.9842 47.4854 29.4181 47.6478 28.8761 47.7496C27.7366 47.9531 26.5972 47.7908 25.4529 47.5702C24.5472 47.3958 23.7402 47.2649 23.0368 47.1801C22.9525 47.168 22.5959 47.1389 21.9624 47.0904C21.695 47.0662 21.4493 47.0541 21.2397 47.0541C20.9169 47.0492 20.6302 47.0056 20.2737 47.0007C20.0473 47.0007 19.7775 46.9838 19.4691 46.9523C19.2836 46.9353 19.0765 46.9571 18.8789 46.928C18.8741 46.928 18.8669 46.9232 18.8669 46.9111C18.8669 46.9062 18.8717 46.899 18.8789 46.899C19.7678 46.7972 20.6278 46.7124 21.4685 46.6421C21.9937 46.6009 22.4658 46.5767 22.8754 46.5767C23.6029 46.5767 24.075 46.5815 24.2822 46.5888C24.3063 46.5888 24.5448 46.613 24.9977 46.6663C25.2313 46.6906 25.4698 46.7269 25.7083 46.7754C26.5321 46.9305 27.0501 47.0274 27.2717 47.0565C28.0401 47.1776 28.8399 47.2479 29.6758 47.2673C29.9842 47.2819 30.2347 47.2528 30.5623 47.2334Z" fill="#0B0B0B"/>
<path d="M30.7285 48.5056C30.8369 48.5104 31.032 48.5298 31.3139 48.5468C31.5692 48.5637 31.9691 48.5468 32.5063 48.4935C33.5325 48.3917 34.5346 48.1881 35.5127 47.8755C35.5247 47.8707 35.5295 47.8755 35.5368 47.8876C35.5368 47.8925 35.5368 47.8997 35.532 47.9046C35.3706 48.1033 35.2164 48.2705 35.055 48.4135C34.6503 48.7673 34.0529 48.9176 33.4916 48.9709C32.8701 49.0315 32.263 48.983 31.6656 48.8158C31.1525 48.6728 30.8417 48.5759 30.7237 48.5274C30.7189 48.5225 30.7117 48.5153 30.7189 48.5104C30.7165 48.5056 30.7237 48.5056 30.7285 48.5056Z" fill="#0B0B0B"/>
<path d="M157.899 33.161C160.339 30.5729 164.292 30.8274 166.391 33.3331C167.586 32.1311 168.951 31.3242 170.722 31.3508C173.191 31.3872 175.003 32.6013 175.607 35.0343C176.053 36.8227 176.188 38.6887 176.429 40.5256C176.544 41.415 176.479 42.3383 176.696 43.1961C176.85 43.8092 177.342 44.3351 177.674 44.9046C177.797 45.1154 178.048 45.4232 177.983 45.5371C177.867 45.7358 177.556 45.9296 177.322 45.9345C175.569 45.966 173.813 45.966 172.059 45.9369C171.806 45.9321 171.558 45.7285 171.307 45.617C171.44 45.3771 171.575 45.1372 171.702 44.8949C171.977 44.3714 172.493 43.8431 172.481 43.3246C172.425 40.8697 172.29 38.41 172.057 35.9649C171.91 34.4091 170.927 33.5245 169.744 33.5973C168.458 33.6772 167.125 34.9325 167.121 36.2896C167.111 38.7469 167.198 41.209 167.33 43.6614C167.352 44.0588 167.831 44.4272 168.082 44.8222C168.231 45.0548 168.467 45.3311 168.433 45.5492C168.407 45.714 168.014 45.9296 167.781 45.9345C166.061 45.9684 164.338 45.966 162.618 45.9369C162.406 45.9345 162.062 45.7503 162.021 45.588C161.975 45.4062 162.144 45.0379 162.317 44.9482C163.201 44.4926 163.363 43.722 163.322 42.8496C163.208 40.3632 163.221 37.8575 162.917 35.3954C162.678 33.4785 160.836 32.9575 159.366 34.2225C158.429 35.027 157.998 36.0957 157.969 37.3001C157.926 39.0982 157.923 40.8964 157.974 42.6945C157.998 43.5426 158.061 44.4296 159.017 44.8925C159.195 44.9797 159.323 45.3844 159.292 45.6195C159.275 45.7552 158.899 45.9369 158.682 45.9418C156.796 45.9708 154.91 45.9757 153.021 45.9515C152.816 45.949 152.537 45.7527 152.44 45.5661C152.38 45.4522 152.566 45.0572 152.705 45.016C153.881 44.6792 153.922 43.659 153.951 42.7696C154.026 40.5086 154.014 38.2404 153.961 35.977C153.941 35.1676 153.816 34.3388 152.783 34.0238C152.168 33.8372 152.281 33.3161 152.773 33.0859C154.081 32.4704 155.413 31.8936 156.765 31.3799C157.348 31.1594 157.812 31.3944 157.834 32.1311C157.841 32.4292 157.87 32.7224 157.899 33.161Z" fill="black"/>
<path d="M88.7865 32.8048C89.9717 32.3225 91.1256 31.5543 92.3493 31.4138C96.0639 30.9873 97.7189 33.5245 98.1139 36.2193C98.4656 38.6159 98.615 41.0417 98.9546 43.4384C99.0269 43.9425 99.5448 44.3787 99.8508 44.8536C100.012 45.1057 100.159 45.3674 100.313 45.6243C100.068 45.7333 99.8243 45.9344 99.5761 45.9369C97.755 45.9635 95.9338 45.9635 94.1127 45.9344C93.8718 45.9296 93.6333 45.7066 93.3924 45.5855C93.5441 45.3553 93.7031 45.1299 93.8453 44.8924C94.1006 44.4683 94.5704 44.0321 94.5583 43.6105C94.4909 41.0853 94.38 38.5578 94.1488 36.0448C94.0115 34.5762 93.2503 33.8177 92.1566 33.6384C91.1665 33.476 89.938 34.2103 89.3743 35.3444C89.1864 35.7249 88.9744 36.1514 88.972 36.5585C88.9575 38.9407 88.9623 41.3277 89.0659 43.7074C89.0828 44.0951 89.6368 44.4514 89.9235 44.8367C90.1018 45.0766 90.2415 45.3456 90.3981 45.6C90.1548 45.7188 89.9139 45.9344 89.6706 45.9369C87.7844 45.9659 85.8957 45.9635 84.0071 45.9369C83.759 45.932 83.5133 45.726 83.2676 45.6121C83.4169 45.3868 83.5157 45.0427 83.7205 44.9578C84.5805 44.6065 84.7852 43.8528 84.8021 43.0943C84.8551 40.6976 84.8551 38.2985 84.8045 35.8994C84.7876 35.1094 84.5925 34.3412 83.6506 34.0116C83.0122 33.7886 83.1495 33.3524 83.6699 33.1125C84.9827 32.5043 86.3028 31.9033 87.6519 31.3823C88.271 31.1448 88.7696 31.3847 88.7913 32.1699C88.7937 32.4607 88.7865 32.749 88.7865 32.8048Z" fill="black"/>
<path d="M191.747 33.2507C193.306 31.4671 195.127 31.0237 197.102 31.4599C199.658 32.0245 200.689 34.0068 201.058 36.372C201.405 38.599 201.607 40.8503 201.86 43.0919C201.952 43.9037 202.267 44.5289 203.028 44.924C203.228 45.0282 203.301 45.3771 203.433 45.6122C203.216 45.7237 203.002 45.9321 202.785 45.9345C200.865 45.9587 198.943 45.9636 197.023 45.9321C196.789 45.9272 196.558 45.6873 196.324 45.5564C196.45 45.3456 196.524 45.0378 196.707 44.9433C197.37 44.5992 197.548 44.0588 197.509 43.3706C197.372 40.9472 197.273 38.5215 197.095 36.103C196.994 34.7483 196.307 33.922 195.267 33.6748C194.272 33.4373 193.007 33.9801 192.427 35.0561C192.077 35.7056 191.803 36.4737 191.767 37.2008C191.675 39.028 191.711 40.8624 191.752 42.6945C191.771 43.6129 191.991 44.4708 192.937 44.9433C193.118 45.033 193.19 45.3456 193.313 45.554C193.082 45.6849 192.853 45.9248 192.619 45.9296C190.699 45.9636 188.779 45.9636 186.857 45.9418C186.638 45.9393 186.423 45.7406 186.204 45.634C186.332 45.4232 186.414 45.0936 186.599 45.0185C187.604 44.5992 187.787 43.7801 187.782 42.8253C187.773 40.4626 187.785 38.0998 187.773 35.7371C187.768 34.9616 187.536 34.3533 186.715 34.0068C186.127 33.7596 186.173 33.2798 186.763 33.0108C188.021 32.4389 189.29 31.8912 190.567 31.3678C191.306 31.0648 191.692 31.3411 191.74 32.1505C191.759 32.4171 191.747 32.6836 191.747 33.2507Z" fill="black"/>
<path d="M146.112 44.7252C143.715 46.5015 141.152 46.7827 139.155 45.4983C137.515 44.4417 136.847 42.8108 136.705 40.9497C136.58 39.2921 136.549 37.6248 136.503 35.9624C136.481 35.1118 136.332 34.4115 135.4 34.0674C134.831 33.859 134.838 33.3743 135.385 33.1392C136.867 32.5043 138.358 31.8839 139.885 31.3775C140.608 31.1376 140.866 31.7119 140.853 32.3783C140.825 34.0771 140.769 35.7734 140.772 37.4722C140.772 39.0328 140.786 40.5934 140.88 42.1492C140.95 43.3342 141.636 44.1242 142.585 44.323C143.527 44.5217 144.672 43.9982 145.137 42.9998C145.438 42.3552 145.645 41.6185 145.686 40.9109C145.789 39.1855 145.813 37.4528 145.789 35.7249C145.78 35.0028 145.621 34.3073 144.703 34.0407C144.014 33.8396 144.149 33.3258 144.698 33.069C145.98 32.468 147.278 31.9009 148.601 31.3944C149.396 31.0915 149.805 31.4647 149.81 32.405C149.822 35.4366 149.808 38.4657 149.824 41.4973C149.832 42.6266 149.771 43.7389 151.185 44.2769C151.805 44.512 151.549 45.1687 151.06 45.5589C150.044 46.3707 147.505 46.6203 146.466 45.1566C146.368 45.0257 146.254 44.9046 146.112 44.7252Z" fill="black"/>
<path d="M124.803 24.9216C126.005 24.8659 127.031 24.7714 128.052 24.798C128.411 24.8077 128.763 25.1203 129.119 25.2948C128.871 25.5202 128.662 25.8376 128.37 25.9564C127.274 26.4023 126.968 27.2917 126.959 28.3482C126.932 31.7433 126.927 35.1384 126.915 38.5335C126.91 39.8955 126.92 41.2574 126.915 42.6169C126.913 43.5062 127.452 43.8819 128.226 43.9231C129.216 43.9764 130.218 44.0224 131.201 43.9182C132.251 43.8067 133.13 43.276 133.723 42.3455C133.937 42.011 134.135 41.6403 134.429 41.3955C134.605 41.2477 134.99 41.2162 135.209 41.3083C135.351 41.3689 135.465 41.7663 135.419 41.9723C135.13 43.2276 134.79 44.4683 134.472 45.7163C134.347 46.2058 134.079 46.3779 133.552 46.3585C129.657 46.2083 125.759 46.0992 121.861 45.9538C121.57 45.9441 121.286 45.7672 120.999 45.6703C121.177 45.4037 121.3 45.0572 121.546 44.8875C122.232 44.4101 122.582 43.7777 122.584 42.9634C122.591 37.872 122.589 32.7805 122.589 27.6867C122.589 26.8458 122.302 26.2205 121.44 25.92C121.235 25.8498 121.129 25.496 120.977 25.273C121.221 25.1058 121.466 24.798 121.71 24.798C122.796 24.7932 123.887 24.878 124.803 24.9216Z" fill="black"/>
<path d="M68.1346 33.7571C68.1346 36.7185 68.1443 39.6798 68.1298 42.6435C68.125 43.6565 68.3827 44.4611 69.4089 44.8827C69.6258 44.9724 69.7462 45.3044 69.91 45.5273C69.6547 45.6727 69.4017 45.9417 69.144 45.9466C67.1253 45.9805 65.1066 45.9781 63.0903 45.949C62.8566 45.9466 62.6254 45.7042 62.3917 45.5709C62.5314 45.3698 62.6278 45.0669 62.8181 44.9869C63.8298 44.5604 64.1454 43.7244 64.1478 42.7405C64.1647 37.8138 64.155 32.8872 64.1623 27.9629C64.1623 27.1148 63.7696 26.6131 62.9747 26.3441C62.7434 26.2666 62.5796 25.9855 62.3845 25.7965C62.5675 25.6292 62.7217 25.3918 62.9361 25.3069C64.3405 24.7423 65.7498 24.1946 67.171 23.6736C67.9804 23.3755 68.3297 23.693 68.3297 24.6793C68.3346 27.7061 68.3321 30.7328 68.3321 33.7596C68.2671 33.7571 68.1997 33.7571 68.1346 33.7571Z" fill="black"/>
<path d="M184.166 37.8211C184.166 39.6144 184.174 41.4101 184.164 43.2034C184.159 44.0176 184.463 44.5944 185.233 44.936C185.453 45.033 185.578 45.3432 185.747 45.5564C185.484 45.6897 185.224 45.9345 184.959 45.9393C183.041 45.9732 181.124 45.9732 179.209 45.949C178.956 45.9466 178.708 45.7479 178.455 45.6412C178.609 45.4134 178.715 45.0669 178.927 44.9772C179.818 44.6016 180.001 43.8577 180.006 43.0313C180.025 40.671 180.021 38.3106 180.011 35.9503C180.008 35.0827 179.84 34.3218 178.857 33.985C178.32 33.8008 178.327 33.3573 178.821 33.1392C180.264 32.5067 181.716 31.8888 183.205 31.3774C183.911 31.1351 184.198 31.6246 184.19 32.3322C184.171 34.1619 184.183 35.9891 184.183 37.8187C184.178 37.8211 184.174 37.8211 184.166 37.8211Z" fill="black"/>
<path d="M181.88 24.7471C183.376 24.7375 184.371 25.6171 184.383 26.9597C184.398 28.3385 183.354 29.3563 181.916 29.366C180.478 29.3757 179.433 28.4355 179.416 27.1196C179.401 25.6826 180.363 24.7568 181.88 24.7471Z" fill="black"/>
<path d="M60.3923 36.4156C59.619 35.6474 58.5639 35.1627 57.4895 34.4478C57.7545 34.22 58.1086 33.9704 58.3976 33.6578C60.2863 31.6149 60.1851 28.7142 58.1688 26.8094C56.8487 25.5614 55.2082 25.0428 53.4714 24.9895C50.4313 24.895 47.3839 24.9435 44.3414 24.9629C44.0741 24.9653 43.8067 25.2076 43.5393 25.3409C43.7175 25.5469 43.8548 25.845 44.0789 25.9443C44.7751 26.2569 45.0786 26.7973 45.081 27.5122C45.0882 32.5067 45.1003 37.5037 45.0569 42.4982C45.0497 43.3391 44.9124 44.2163 44.0548 44.7616C43.8067 44.9191 43.6983 45.302 43.5272 45.5807C43.8283 45.7188 44.127 45.9684 44.433 45.9781C46.3505 46.0411 48.2728 46.109 50.1904 46.0678C52.5921 46.0144 55.0661 46.1938 57.3787 45.68C62.8036 44.4732 62.7867 38.7929 60.3923 36.4156ZM49.2726 28.3434C49.287 27.5898 49.6869 27.0494 50.4144 26.7586C52.7752 25.8159 55.1769 27.2408 55.4274 29.7611C55.7912 33.4106 53.6135 34.7168 50.1422 34.2927C49.8844 34.2612 49.6315 34.1667 49.2605 34.0746C49.2605 32.1214 49.2388 30.2312 49.2726 28.3434ZM57.3883 41.9117C57.1065 43.2615 55.9357 44.2187 54.3819 44.3472C54.0206 44.3763 53.6568 44.352 53.2931 44.352C53.2883 44.3835 53.2859 44.415 53.281 44.449C52.633 44.3496 51.9706 44.3108 51.3418 44.1412C49.9374 43.7632 49.2726 42.8641 49.2581 41.3907C49.2436 39.7961 49.2677 38.2016 49.2533 36.607C49.2485 36.0448 49.4195 35.8049 50.0362 35.737C51.5297 35.5723 52.9944 35.5335 54.4036 36.1442C56.6945 37.1329 57.899 39.4714 57.3883 41.9117Z" fill="black"/>
<path d="M115.668 44.3181C114.372 43.9158 114.432 42.9465 114.435 41.9359C114.439 36.1732 114.444 30.4105 114.444 24.6502C114.444 23.6252 114.155 23.3586 113.31 23.6688C111.922 24.1801 110.544 24.7229 109.178 25.2924C108.952 25.3869 108.805 25.6777 108.622 25.8789C108.81 26.0388 108.983 26.3078 109.19 26.3417C110.149 26.4968 110.424 27.1705 110.445 27.9848C110.484 29.3806 110.455 30.7789 110.455 32.3177C107.704 30.745 105.237 31.1351 102.994 33.0084C100.494 35.0973 99.5424 38.679 100.554 41.7857C101.626 45.0742 104.739 46.9305 108.012 46.1308C108.884 45.9175 109.682 45.3941 110.554 44.9942C110.578 45.0112 110.66 45.0621 110.73 45.1299C111.98 46.3561 113.97 46.5985 115.451 45.7018C116.152 45.2777 116.297 44.512 115.668 44.3181ZM110.241 42.0717C110.038 43.3972 109.132 44.2745 108.015 44.432C106.779 44.6065 106.001 43.8649 105.442 42.9247C104.035 40.5546 103.9 38.0077 104.794 35.4535C105.442 33.6021 107.203 32.8557 108.978 33.5754C110.236 34.0867 110.578 34.5254 110.474 35.7031C110.404 36.4955 110.462 37.3001 110.462 38.0998C110.491 38.1022 110.52 38.1046 110.551 38.1071C110.455 39.4302 110.441 40.7655 110.241 42.0717Z" fill="black"/>
<path d="M217.366 44.1678C216.49 44.2211 216.227 43.7728 216.162 42.9707C216.003 40.986 215.764 39.0061 215.589 37.0214C215.316 33.9704 213.772 31.9421 210.944 31.5034C209.564 31.2902 208.034 31.4768 206.673 31.8524C204.996 32.3152 204.168 33.8008 204.25 35.4268C204.288 36.2314 204.544 36.8396 205.454 36.9802C206.386 37.1256 207.005 36.8081 207.256 35.8727C207.367 35.4583 207.454 35.0391 207.533 34.6174C207.694 33.7402 208.109 33.1683 209.084 33.1174C210.262 33.0568 210.797 33.3306 211.166 34.3678C211.32 34.7992 211.392 35.2669 211.457 35.7225C211.713 37.5061 212.038 37.4309 209.805 37.7847C208.429 38.0028 207.025 38.3591 205.767 38.9455C204.182 39.6846 203.399 41.57 203.686 43.2179C203.956 44.7688 205.153 45.8351 207.013 46.1647C209.034 46.5233 210.886 46.2349 212.467 44.6525C214.122 46.5766 216.261 46.8214 217.718 45.2704C217.908 45.0669 217.985 44.7106 218.002 44.4174C218.005 44.3447 217.583 44.1557 217.366 44.1678ZM210.612 44.0927C209.769 44.5047 208.916 44.4441 208.236 43.7752C207.502 43.0555 207.466 42.1152 207.755 41.1871C208.162 39.8712 209.879 38.7953 211.272 39.0061C211.484 39.0376 211.729 39.4593 211.787 39.7379C211.874 40.1499 211.809 40.5958 211.809 41.0272C211.816 41.0272 211.823 41.0272 211.828 41.0272C211.828 41.3252 211.802 41.6257 211.833 41.9214C211.937 42.944 211.496 43.6613 210.612 44.0927Z" fill="black"/>
<path d="M82.3835 41.6233C82.186 41.5434 81.8536 41.7179 81.6151 41.8487C81.4513 41.9384 81.3525 42.1419 81.2176 42.2873C78.8448 44.8028 75.7517 44.1654 74.4677 40.7461C77.0044 39.7428 79.4687 38.7396 81.9596 37.8066C82.5449 37.5861 82.716 37.3098 82.6485 36.7185C82.1017 32.0414 77.3272 29.7659 73.415 32.3638C70.77 34.1207 70.0064 36.7427 70.11 39.7913C70.2738 44.6016 75.8577 47.9386 80.0806 45.6921C81.4272 44.9748 82.3715 43.9061 82.6389 42.3528C82.6774 42.1177 82.5449 41.6888 82.3835 41.6233ZM74.2678 34.7677C74.5713 33.8929 75.0941 33.2604 76.0745 33.1635C77.1465 33.0544 77.9704 33.5051 78.4136 34.4599C78.6979 35.073 78.8761 35.7758 78.905 36.4471C78.9195 36.8033 78.5991 37.3461 78.2787 37.5134C76.9731 38.1943 75.6096 38.7638 74.1618 39.4205C73.7788 37.7533 73.7523 36.2532 74.2678 34.7677Z" fill="black"/>
</svg>
